# xmcd CD database file
#
# Track frame offsets:
#	150
#	20117
#	37827
#
# Disc length: 769 seconds
#
# Revision: 0
# Processed by: cddbd v1.5.1PL0 Copyright (c) Steve Scherf et al.
# Submitted via: CDex 1.51
#
DISCID=1b02ff03
DTITLE=Kaya - 形のない街を目指して
DYEAR=2001
DGENRE=Vocal
TTITLE0=形のない街を目指して
TTITLE1=YES-MAN
TTITLE2=形のない街を目指して -Instrumental-
EXTD=YEAR: 2001
EXTT0=
EXTT1=
EXTT2=
PLAYORDER=
